/* XPM */
static char *nest[] = {
/* width height num_colors chars_per_pixel */
"    48    48      202            2",
/* colors */
".. c None",
".# c #1f1000",
".a c #200800",
".b c #201000",
".c c #201700",
".d c #20170f",
".e c #201800",
".f c #201f0f",
".g c #2f1f00",
".h c #2f2710",
".i c #301700",
".j c #301f00",
".k c #30200f",
".l c #302810",
".m c #3f2000",
".n c #3f270f",
".o c #3f2f10",
".p c #402700",
".q c #40270f",
".r c #402f0f",
".s c #402f10",
".t c #40371f",
".u c #403720",
".v c #40382f",
".w c #4f3000",
".x c #4f3010",
".y c #4f371f",
".z c #4f3f1f",
".A c #4f3f3f",
".B c #4f402f",
".C c #4f403f",
".D c #503700",
".E c #50370f",
".F c #503f10",
".G c #50401f",
".H c #504020",
".I c #504030",
".J c #50403f",
".K c #504730",
".L c #50473f",
".M c #5f3f10",
".N c #5f4000",
".O c #5f401f",
".P c #5f471f",
".Q c #5f481f",
".R c #5f482f",
".S c #5f5030",
".T c #5f5040",
".U c #5f5750",
".V c #604010",
".W c #60481f",
".X c #604830",
".Y c #604f20",
".Z c #604f3f",
".0 c #605730",
".1 c #60584f",
".2 c #6f4000",
".3 c #6f4810",
".4 c #6f5730",
".5 c #6f5740",
".6 c #6f5f30",
".7 c #6f5f3f",
".8 c #6f6040",
".9 c #6f6850",
"#. c #704f10",
"## c #70501f",
"#a c #705020",
"#b c #705710",
"#c c #70581f",
"#d c #705830",
"#e c #705f2f",
"#f c #705f3f",
"#g c #705f4f",
"#h c #705f50",
"#i c #70683f",
"#j c #706840",
"#k c #70706f",
"#l c #7f5000",
"#m c #7f5f2f",
"#n c #7f6030",
"#o c #7f673f",
"#p c #7f6840",
"#q c #7f685f",
"#r c #805820",
"#s c #805f10",
"#t c #80602f",
"#u c #80673f",
"#v c #80684f",
"#w c #806f40",
"#x c #806f50",
"#y c #806f5f",
"#z c #80704f",
"#A c #80786f",
"#B c #807f5f",
"#C c #8f6020",
"#D c #8f6f3f",
"#E c #8f6f50",
"#F c #8f7040",
"#G c #8f784f",
"#H c #906010",
"#I c #906720",
"#J c #90682f",
"#K c #906f3f",
"#L c #90702f",
"#M c #907060",
"#N c #90773f",
"#O c #907840",
"#P c #90786f",
"#Q c #907f6f",
"#R c #908050",
"#S c #90875f",
"#T c #90886f",
"#U c #908f70",
"#V c #909080",
"#W c #9f701f",
"#X c #9f702f",
"#Y c #9f7840",
"#Z c #9f804f",
"#0 c #9f8050",
"#1 c #a0680f",
"#2 c #a0783f",
"#3 c #a0804f",
"#4 c #a0806f",
"#5 c #a0874f",
"#6 c #a0875f",
"#7 c #a08f50",
"#8 c #a08f5f",
"#9 c #a0906f",
"a. c #a09770",
"a# c #a0977f",
"aa c #af701f",
"ab c #af782f",
"ac c #af7f3f",
"ad c #af803f",
"ae c #af876f",
"af c #af884f",
"ag c #af8f5f",
"ah c #af8f6f",
"ai c #af8f7f",
"aj c #af9070",
"ak c #af907f",
"al c #af9880",
"am c #af9f70",
"an c #afa080",
"ao c #b06f0f",
"ap c #b0802f",
"aq c #b0904f",
"ar c #b0975f",
"as c #b09780",
"at c #b0a06f",
"au c #b0a890",
"av c #bf8f3f",
"aw c #bf907f",
"ax c #bf974f",
"ay c #bf977f",
"az c #bf985f",
"aA c #bf9860",
"aB c #bf9f6f",
"aC c #bfa080",
"aD c #bfa870",
"aE c #bfa880",
"aF c #bfa890",
"aG c #c09750",
"aH c #c09f80",
"aI c #c0a760",
"aJ c #c0a76f",
"aK c #c0b080",
"aL c #c0b790",
"aM c #cf9740",
"aN c #cfa78f",
"aO c #cfa87f",
"aP c #cfaf6f",
"aQ c #cfaf90",
"aR c #d09f80",
"aS c #d0a860",
"aT c #d0b770",
"aU c #d0b88f",
"aV c #d0b890",
"aW c #dfa750",
"aX c #dfaf90",
"aY c #dfb79f",
"aZ c #dfb8a0",
"a0 c #dfc08f",
"a1 c #e0a780",
"a2 c #e0b790",
"a3 c #e0b79f",
"a4 c #e0b870",
"a5 c #e0bfa0",
"a6 c #e0c8a0",
"a7 c #e0cf9f",
"a8 c #efb090",
"a9 c #efbf90",
"b. c #efd7af",
"b# c #f0bf9f",
"ba c #f0c0a0",
"bb c #f0cfb0",
"bc c #ffc8af",
"bd c #ffd7b0",
"be c #ffd7bf",
"bf c #ffd8bf",
"bg c #ffdfc0",
"bh c #ffe7c0",
/* pixels */
"............................#8#8#9.Y..........#8#8#2#2..........................................",
"..........................au#3#3a.aD#T#8aIa.#8........#8..#8#8..................................",
"......................#Z#2aOaPar#PaLalaD#8#8....aD..#2......#8#8................................",
"....................#8#Aajam#xa.........aE#x#e#t#p#O#8.G#3aV#Z#9#8#2#o..........................",
"..................a#.....p#0....aE#P.p.i.2ab.P#aat#K.Y#F.4.x#ZazaV....#2aL......................",
"............#F#D....aE#TaA#FaI#D#b#D.E.Y#3ad#D.H.s.l.k.q.E.z.f.O#Y#7an#0#SanaL..................",
"..........#o#v....aBaKaua##2#.#C#C#m#2.w#t#I.P.M.n.k.i##.c.d.q.p.b.6#daI....#b..................",
"..........#q..#2#FaAalaB#s#J#n.W#K##.R.z.k.x.s.d.n.o.r.Q.c.g.E#a.P.c.f#da##8..aI................",
"........#3..#2.1..#D#tad#Zag#w#d#n.n.u.d.#.k.#.c.c.n.b.#.d.F#L.f##.f.c.c#7#D..a7................",
"......aD#9a..Q..#LaW#maTaIa4#6.d.c.d.c.f.c.s.s.c.#.b.o.P.r.r.W.##a.M.#.e.k.4#eaKaOaL............",
"......aD#8aL..#F.2#X.0.Y#e.Y.u.d.c.c.j.#.c.y.j.n#Mak#M#v.W#L.##d#K#c.s.f.l#R.caDa0..a0..........",
"....#Ta.#F#A..#l#W#N.W#s.z.d.k.n.k.y.o.g.t.aawbdb#a3aQ#4#f.Z.y.x#aad#a.O.R.#aD.eaLaz..#F........",
"....#2alal#8#t#n#Z.W.V.g.e.f.t.o.s.g.k.y.E#4babab#a1aRae#M.L.K.N.zaMac.W.4.u.c.c.RaD#8aD........",
"....aU#8#m#Q#L#K#c.M.c.c.e.l.t.f.#.b.Y#a.Obfbfbhbaa5aNas#Q.T.C#a#e#m#X#m#f.S.c.c#j..a0#2#2......",
"..#2#2..#8#s#r#l.w.i.c.t.z.H.t.#.o#x#F.MaRbfbhbgbca9aQas#Q.1.C.H.2.B#u#Y.4.H.S.B.e..#2b.au......",
"....#FaDaO#5.p#W#J.i.#.f.o.H.l.R#v#u#t.waZbfbgbgbca3aQak#E.T.L.H.F#K#f#Y#a#a.R.0.l.Z#T..#W......",
"....aV#9#e#0.pap#C.c.f.#.z.t.4.4.G.3.r.maXbhbgbga6aZaNaj#Q.J.L.K#w.V.3#Y#u.W#d.S.c.taD..aA#2....",
"..azauaL.2ag#2#C.3.g.c.z.G.b.G.n.4.w.q.baXbfbcb#a5aQas#Q.5.I.J.H#.###b.O#Iab.W.e.c.kaD....aU....",
"..#Z..#l#2#7aA.N.F.c.c.c.#aha5bbaZai#y.P.0bba2a2aXawai#y.L.I.A#t.M.Q#L#naa#8.p.D.#.z#FaD..au#8..",
"..#Wa.ab#c.2aG#t.x.c.h.cbebaa8baaYaH#E.Z.WaNaQaNayai#M.1.J.C.K#H#I.P#e.v#s#D.D.n#z.h.Ba7..a.#2..",
"....aF#l#L#2#L#6.P.#.caZbgbgbaa1aXaw#4#g.A.Vaeai#4#y.T.A.C.B#J#L#H#c#S.4.DaI#b.F.4#6ataO..aEa...",
"aA#o#pab#lag#a#r.n.c.vaZbhbgbbbaaXasai#q.J.B#K#E.5.A.A.J.H.W.Vacad#N#R#o.j#C#7##.n#8.c#6aE..aE..",
"....#t#Lao#5#mazag.caebhbhbgbba2aXaC#U#h.C.u#u#K.Y.7#K#K#2.3.k#m.4.Q.0aB.o.xaq#m.c#0.7.R....aE..",
"....az#NaoaMaTaqaA.#aXbhbdbbbaaXaQak#M.1.I.L.u.y.z###5#racad#5#7.k.s#raI#Z.R#s#6.#.0#F.9..#Z....",
"....aI.Nac#5aq#l#I.faNbfbcbba5aQaw#4#y.L.I.L.K.k.E.i.i.D.3aa#Hac.E.l#m#Oah.O#raf.z.c#wauaD#Z....",
"an...X#naS#cap#Y#1.N#gbbbaa5a5aCak#M.1.I.I.I#J.V#faXbbaYas#E#J#I.3.k.4ad#2.4#s.D#f.#.R#GaJ#T....",
"#T#9#oag#saa#J#F#b.m.cbbaXaNaHak#Q#h.C.I.J.B#lahaTbca8a3aHak.U#a#a.G.B#5#w.TaG#K.G#6.laAaAa.....",
"..auaDaI#u#WaxaS.P#b.#.CaQaw#4#M#q.L.C.I.A.M#EaTbcbca1a2aHah#x.X#d.y.G#maq.8ap#X.z#G.g#2aE#8aL..",
"..#Fan#laE#HaWaxat#w.m.c#x#P#y.5.C.L.J.C#u#caAbcbhbeb#aRay#4#P.T.C.s.k#DaS.7.E.baB.c.7aIaK..#9..",
"....aE#q#2.6#a#I#taK.YaP.c.j.X.K.X.H.H.X#taJbcbfbgbfbaaYaHak#P.U.J.G#F#ma4aq#N.Q.c.#.7ar........",
"....a.aG.D#6.p.Dac#d#2.6#z.a.j.O#n.D.E.#.cawbdbdbebba5aRaC#4#y.L.C.S#mafar#d#N.0.h.#az#V#8..#D..",
"aL..aDaG.X#N#o.M#I#u#X.S.E.4.c.f.r.i.3#c.cawbdbcbeb#aXaNak#Q.5.L.L.B#2#mar#m.M.6.c.B#Z.RaT..#Za.",
"#8auaE..#F.w#3ar#a#9ab#o.N###j.c.x.k.g.M.r#EbfbcbaaZaQas#4#y.I.C.A.0#5#m#Z#t#o.h.caA.t#e....al.8",
"....aEaI..aA#r#F#oat#i#oac.2.c.c#J.x.G.P.p.jbca2aXaNaFai#P.5.I.I.v#2#Y#O#Y#C.7.c.caT.c#2..aAaAaG",
"......#8a.am#k#Yag#F#w#FaD.V.#am#m.q.k.G.P.r#gaXawawae#M#g.C.L.A#dac#d#3#o.O.x.caP.c.#aA..aT#S..",
"......#S....#T#i.uaI#n.D#jam.r.aag.W.W.E.W#a.p#gai#Q#y.T.C.C.A.5acaq#o#v.O.o.c.c.c.c.F..aB#OaT#B",
"........#R....#T.w#faj.m.i#n#G#o.zag.O#u#m.F.j.0.K.L.I.I.C.Z#u#5aTaJ.H.E.G.f.#aP.d.##3a.#Z..a...",
"........a#....#T..#e#F#6.O.a#O.w.6#i#8.G.O.6#X#i.O.x.H.X.H#aaxavaA.l.k.x.t.##S#w.c.lazaA#Z#T....",
"..............am....ag#D#i#z.Q.o.#.w#e#0.m.Y#d.W.E.x.x#e#t#e#K#2.p.j.#.c.h.##9.7.#.SaD#DaE......",
"................#N....aC.R.6.4#6.7.F.q.Y#0#e.n.F.O.O#a#w#v.E.E.b.j.c.e.d.#.H#B.#.7#7#U..........",
"................aA#8#2#T#7.X.7.7.0.0.6ag#o#R#f.r.0#n#p.#.c.#.c.#.#.c.c.#.c#G#R#S#i#0............",
"..................aL#8#Zaq#8.0.#.4#n.t.c.##waJ#0.G.z.R.r.o.f.d.c.e.#.4.0#o#8#F.#.o........#U....",
"......................#8#8#DaDaD.T.h.t#8#z.h#Z.0.R.g.m#G#n.l.h.c.##z.0.##G#j.#.UaS#3#8#T#q......",
"....................aE......#8aK#N#R#6.O.#.B#0#6#o.7#G.u.d.#.c.c.#.#.h#v#v#j#z#8#S#T#UaD........",
"......................#Z....#NaL#8#jam#B.6#w.7#i.u#7araT#z#z#p#iaTaPat#p#R.#a....Y..............",
"..........................#R..aEaja#.1#7#A#0.6.c.c.S#6.f.#.d#R.#.e.c.#.7#T......................",
"................................#F#8#6........#o#o.c.c#K#n#u.o.Y#v#R#k..aI..a.a.................",
"..............................#9#9....an#Z............#8#0..#0#RaE....#U#Sa....................."
};
SIMPLE  =                    T                                                  
BITPIX  =                    8                                                  
NAXIS   =                    2                                                  
NAXIS1  =                   48                                                  
NAXIS2  =                   48                                                  
HISTORY Written by XV 3.10                                                      
END                                                                             
                                                                                
                                                                                
                                                                                
                                                                                
                                                                                
                                                                                
                                                                                
                                                                                
                                                                                
                                                                                
                                                                                
                                                                                
                                                                                
                                                                                
                                                                                
                                                                                
                                                                                
                                                                                
                                                                                
                                                                                
                                                                                
                                                                                
                                                                                
                                                                                
                                                                                
                                                                                
                                                                                
                                                                                
                                                                                
SSSSSSSSSSSSSSSSS ƒSSSSSSƒSƒ~©SSŠƒ”SSSSSSSSSSSSSSSSSSSSSSSSSSs‰SSSSiirci/M
l~oS¤S””SSSSSSSSSSSSSSSSSSSSS~S©•–Y‹yƒ]P‰~_†SSSSSSSSSSSSSSSSSSSSSSƒSSv´
dz]m_d6‹–´ppid´°i~”SMSSSSSSSSSSSSSSSSS©SSS®v~‰EBƒ‰i_y6&lldpƒ†Š§SSSS
SSSSSSSSSSSr§§R&6p&ƒTL%yc'&pTydXªƒ†nSSSSSSSSSSSS´ƒTYc6m¦ƒ@?L//
YTis/SSSSŠSSSSSSSSSSœ|†‹L__TT]’i~_/Tciy~ƒdƒSSSSSSSSSSSSSSvSS¥L]Y‰
_=+Mƒ]+=EESml99 @z_‹ŠSSSSSSSSSSSSSS’rdpI/3]ƒ%MZI955]c]r|) &_P§r©SSS
SSSS–SS†S]s‰Ew3]d@E]vdE5@L@S™“œ'"56ƒm'œœƒ†SSSSSS~SS†3_•%cyi?’Eib= TFHCCERi†
´¦@9@°ƒ”ƒS”SSSSƒSS†d6¤c7d/’II9IS)b—‚rREED[…ilE/=S¢w´zSSS”o|’sms§C
b+"@I/bº‘xbEHDZ…ZƒiE5°œS´ƒSSS©¤Sœ]sidi…Fl5@I) ×¿º±¬—~[CC9||w|f_´|Sœœš
§©Ss3ƒ–Si@Sd5"B/uá×ËÁµœˆrCEDT†bƒci&œ6]SSœ`´S§šLviBjivP9Y/LWŞ×áÊº±˜‚[H
HB|b–bB]BƒL´Sƒ”SS”š7‰)7…Z|]p Ec79ŞŞáÕÅ«¥ˆrHEPbŒ–ZvT&œSrSSS©n|]Sjc®M° LF
L@@Lc¦×áåáËÁ¥˜~XE@sbºvI_–SSSSSs S©d¬™m%p~r[EHEEiWœ×éáÊ«¡ˆ~RE0"rª_9¢_¤®SSS§§¤is™ªITEµˆxnHECDBu´××´¿¥•pLZ;@b`ƒv?y|©´S†i’^ylsT%Õº±¥˜‚bECEBS•´×ÀÁ¥˜XSS@B†mRšr@‰'œœ”SS SLcªWƒ|m@bÕËÅÅ¥˜xYCCClC_ºÕÁœuljL"Y†|Y^7_Ly¦†SSSS¤@…†Sj±á×ÕÅµˆrHCHF"97Lyd…9'bw•E]Œ?m§§ƒSSSSœvvœ´œºéŞÕËºµ˜xYCH6;?S†]…††‹"0]¤ƒL^‰TsfSƒSSSScpv†bœ’‘ééåÕ¿º¥ŠbE6irM_rr|L"bYIT¢/5bƒ_LSS©SœiiS’S]+9ÁéåÕËºœ—nEBru[DDE@IC…†v~i f‹S+‰©S©SSS¬Sp|p‰IÁååË´ºˆbDC‘—ˆrRDEBlpdWƒY7¤T=Y‰¯S©”SSs”WFšc5&áËÀËÁ¥uRI±µ±¡—xYEEFdjI]9^r7+p&BÍS”|SSƒSS|‹œ@=•ÅÕÁ—rITÕ¿¿º—rHCDcBIpcy)7?s§S§SSœ§´F’|fL?@@+Y3+ºá×ÊÅµœ‚[CE@PSTEjI"§SS¹SSSSº]ƒ)ƒf?6YY@L/%ºéååÊÁ±•‚EHFmCL|iIZP6§Sœ|SSSSs§¯†)sl/@'Llic3Ááåå×Áµ˜uRH@=r_|SSLT'R†SsSSSS||S^]S36?@6/psB«áéå×Èµœ‚YE@FBi|Y@PBS|Ù§SSSSS¹b‚prWB'6MSEááéËÅ±œ‚RES]bvb_PdSÃ||SSSSS|œœccƒIC6/0";9ˆËËÊ´«‘xHF@?œ…IY6L§§SSSSSS†”sySSsvI^?"+";/6ŞÊÁµˆ_R;5S†SEL§´œSsSSSSSSS§´SsFvTM]M6 ; +x˜xlIpZrW0'~§ÃSÃSSSSSSSS§”ISp¬b´¤º‰00/I//ISB"Y]®¯´SSSSSSSSSSƒS|YSrc†ƒ’mZc+6"+=pS‹rSÍSSSSSSSSSSSSSnS|sœœ¢^lcIrSL?"50+//I9SIZ–S¤SSSSSSSSSSSSSilSS¢®§–|Pffb|3cjIB+"S+)]Z¤SSTSSSSSSSSSSSSSSSsrSS©†œs¤rTr9Mƒ†r@0'"+9?E|‹ ƒƒ ´SSSSSSSSSSSSSSSSSS–SS)ƒSS©~)FISrMsY5ƒœºSS|´SSSSSSSSSSSSSSSSSSSSSy•p”SSSS©p]ciw@ƒºƒ|iSSSSSSSSSSSSSSSSSSSSSSSSƒ|¯°–~´œ§SS§S|SSSSSSSSSSSSSSSSSSSSSSSSSSSSSSSS§ƒƒ”§†¤”SSSSSSSSSSSSSSSSSSSSSSSSSSSSSSSSSSSSMSSSSS||SSSSSSSSSSSSSSSSSSSSS€€€€€€€€€€€€€€€€€€€€€€€€€€€€€€€€€€€€€€€€€€€€€€€€€€€€€€€€€€€€€€€€€€€€€€€€€€€€€€€€€€€€€€€€€€€€€€€€€€€€€€€€€€€€€€€€€€€€€€€€€€€€€€€€€€€€€€€€€€€€€€€€€€€€€€€€€€€€€€€€€€€€€€€€€€€€€€€€€€€€€€€€€€€€€€€€€€€€€€€€€€€€€€€€€€€€€€€€€€€€€€€€€€€€€€€€€€€€€€€€€€€€€€€€€€€€€€€€€€€€€€€€€€€€€€€€€€€€€€€€€€€€€€€€€€€€€€€€€€€€€€€€€€€€€€€€€€€€€€€€€€€€€€€€€€€€€€€€€€€€€€€€€€€€€€€€€€€€€€€€€€€€€€€€€€€€€€€€€€€€€€€€€€€€€€€€€€€€€€€€€€€€€€€€€€€€€€€€€€€€€€€€€€€€€€€€€€€€€€€€€€€€€€€€€€€€€€€€€€€€€€€€€€€€€€€€€€€€€€€€€€€€€€€€€€€€€€€€€€€€€€€€€€€€€€€€€€€€€€€€€€€€€€€€€€€€€€€€€€€€€€€€€€€€€€€€€€€€€€€€€€€€€€€€€€€€€€€€
