/* XPM */
static const char *qtlogo_xpm[] = {
/* width height num_colors chars_per_pixel */
"   100   100       16            1",
/* colors */
". c #000000",
"# c #0b0d01",
"a c #161a02",
"b c #202703",
"c c #2b3505",
"d c #364206",
"e c #414f07",
"f c #4c5c08",
"g c #566909",
"h c #61760a",
"i c #6c830b",
"j c #77900c",
"k c #829e0e",
"l c #8cab0f",
"m c #97b810",
"n c #a2c511",
/* pixels */
"nnnnnnnnnnnnnnnnnnnnnnnnnnnnnnnnnnnnnnnnnnnnnnnnnnnnnnnnnnnnnnnnnnnnnnnnnnnnnnnnnnnnnnnnnnnnnnnnnnnn",
"nnnnnnnnnnnnnnnnnnnnnnnnnnnnnnnnnnnnnnnnnnnnnnnnnnnnnnnnnnnnnnnnnnnnnnnnnnnnnnnnnnnnnnnnnnnnnnnnnnnn",
"nnnnnnnnnnnnnnnnnnnnnnnnnnnnnnnnnnnnnnnnnnnnnnnnnnnnnnnnnnnnnnnnnnnnnnnnnnnnnnnnnnnnnnnnnnnnnnnnnnnn",
"nnnnnnnnnnnnnnnnnnnnnnnnnnnnnnnnnnnnnnnnnnnnnnnnnnnnnnnnnnnnnnnnnnnnnnnnnnnnnnnnnnnnnnnnnnnnnnnnnnnn",
"nnnnnnnnnnnnnnnnnnnnnnnnnnnnnnnnnnnnnnnnnnnnnnnnnnnnnnnnnnnnnnnnnnnnnnnnnnnnnnnnnnnnnnnnnnnnnnnnnnnn",
"nnnnnnnnnnnnnnnnnnnnnnnnnnnnnnnnnnnnnnnnnnnnnnnnnnnnnnnnnnnnnnnnnnnnnnnnnnnnnnnnnnnnnnnnnnnnnnnnnnnn",
"nnnnnnnnnnnnnnnnnnnnnnnnnnnnnnnnnnnnnnnnnnnnnnnnnnnnnnnnnnnnnnnnnnnnnnnnnnnnnnnnnnnnnnnnnnnnnnnnnnnn",
"nnnnnnnnnnnnnnnnnnnnnnnnnnnnnnnnnnnnnnnnnnnnnnnnnnnnnnnnnnnnnnnnnnnnnnnnnnnnnnnnnnnnnnnnnnnnnnnnnnnn",
"nnnnnnnnnnnnnnnnnnnnnnnnnnnnnnnnnnnnnnnnnnnnnnnnnnnnnnnnnnnnnnnnnnnnnnnnnnnnnnnnnnnnnnnnnnnnnnnnnnnn",
"nnnnnnnnnnnnnnnnnnnnnnnnnnnnnnnnnnnnnnnnnnnnnnnnnnnnnnnnnnnnnnnnnnnnnnnnnnnnnnnnnnnnnnnnnnnnnnnnnnnn",
"nnnnnnnnnnnnnnnnnnnnnnnnnnnnnnnnnnnnnnnnnnnnnnnnnnnnnnnnnnnnnnnnnnnnnnnnnnnnnnnnnnnnnnnnnnnnnnnnnnnn",
"nnnnnnnnnnnnnnnnnnnnnnnnnnnnnnnnnnnnnnnnnnnnnnnnnnnnnnnnnnnnnnnnnnnnnnnnnnnnnnnnnnnnnnnnnnnnnnnnnnnn",
"nnnnnnnnnnnnnnnnnnnnnnnnnnnnnnnnnnnnnnnnnnnnnnnnnnnnnnnnnnnnnnnnnnnnnnnnnnnnnnnnnnnnnnnnnnnnnnnnnnnn",
"nnnnnnnnnnnnnnnnnnnnnnnnnnnnnnnnnnnnnnnnnnnnnnnmmmmmnnnnnnnnnnnnnnnnnnnnnnnnnnnnnnnnnnnnnnnnnnnnnnnn",
"nnnnnnnnnnnnnnnnnnnnnnnnnnnnnnnnnnnnnnnnnmkhgecbbabbcdefikmnnnnnnnnnnnnnnnnnnnnnnnnnnnnnnnnnnnnnnnnn",
"nnnnnnnnnnnnnnnnnnnnnnnnnnnnnnnnnnnnnnkjdc#..............#ceilnnnnnnnnnnnnnnnnnnnnnnnnnnnnnnnnnnnnnn",
"nnnnnnnnnnnnnnnnnnnnnnnnnnnnnnnnnnnmida......................aehmnnnnnnnnnnnnnnnnnnnnnnnnnnnnnnnnnnn",
"nnnnnnnnnnnnnnnnnnnnnnnnnnnnnnnnnmgc#.....................##..#abgmnnnnnnnnnnnnnnnnnnnnnnnnnnnnnnnnn",
"nnnnnnnnnnnnnnnnnnnnnnnnnnnnnnnmgd#..............................#chmnnnnnnnnnnnnnnnnnnnnnnnnnnnnnnn",
"nnnnnnnnnnnnnnnnnnnnnnnnnnnnnnjd....##..................#.....###..#eimnnnnnnnnnnnnnnnnnnnnnnnnnnnnn",
"nnnnnnnnnnnnnnnnnnnnnnnnnnnnmga...#...............................#..agmnnnnnnnnnnnnnnnnnnnnnnnnnnnn",
"nnnnnnnnnnnnnnnnnnnnnnnnnnnke#.......#................................acknnnnnnnnnnnnnnnnnnnnnnnnnnn",
"nnnnnnnnnnnnnnnnnnnnnnnnnnjc...#........................##....#.........dinnnnnnnnnnnnnnnnnnnnnnnnnn",
"nnnnnnnnnnnnnnnnnnnnnnnnnib..#...............................#...........cjnnnnnnnnnnnnnnnnnnnnnnnnn",
"nnnnnnnnnnnnnnnnnnnnnnnnhb....#.#......................##......#..........ahnnnnnnnnnnnnnnnnnnnnnnnn",
"nnnnnnnnnnnnnnnnnnnnnnnib..#..........#.....####aabba#.....#.....##.......#cinnnnnnnnnnnnnnnnnnnnnnn",
"nnnnnnnnnnnnnnnnnnnnnnjb.................#acehklmmmmljihca..................bjnnnnnnnnnnnnnnnnnnnnnn",
"nnnnnnnnnnnnnnnnnnnnnkc..#.............#cfknnnnnnnnnnnnnlkhc#..#.............cknnnnnnnnnnnnnnnnnnnnn",
"nnnnnnnnnnnnnnnnnnnnme......##....#..#dhmnnnnnnnnnnnnnnnnnnlhda...##.......##.dmnnnnnnnnnnnnnnnnnnnn",
"nnnnnnnnnnnnnnnnnnnng#.#....#......#bglnnnnnnnnnnnnnnnnnnnnnnlfa...#...#....#.#fnnnnnnnnnnnnnnnnnnnn",
"nnnnnnnnnnnnnnnnnnnja...#.......#.#dknnnnnnnnnnnnnnnnnnnnnnnnnnmda.....#....##.ajnnnnnnnnnnnnnnnnnnn",
"nnnnnnnnnnnnnnnnnnmd..#........#.#emnnnnnnnnnnnnnnnnnnnnnnnnnnnnmf#.#...#.......dlnnnnnnnnnnnnnnnnnn",
"nnnnnnnnnnnnnnnnnnf...#....#..#.#hnnnnnnnnnnnnnnnnnnnnnnnnnnnnnnnnh#.#...........gnnnnnnnnnnnnnnnnnn",
"nnnnnnnnnnnnnnnnnmd.#..........#hlnnnnnnnnnnnnnnnnnnnnnnnknnnnnnnnmg#............dlnnnnnnnnnnnnnnnnn",
"nnnnnnnnnnnnnnnnng#.#..........fmnnnnnnnnnnnnnnnnnnnnnnnhcgnnnnnnnnme............agnnnnnnnnnnnnnnnnn",
"nnnnnnnnnnnnnnnnmc..#......#..dlnnnnnnnnnnnnnnnnnnnnnnnha.ahnnnnnnnnld.#..........cmnnnnnnnnnnnnnnnn",
"nnnnnnnnnnnnnnnni#.#.........bknnnnnnnnnnnnnnnnnnnnnnnha...ahnnnnnnnnkb...........#innnnnnnnnnnnnnnn",
"nnnnnnnnnnnnnnnnd..#........#gnnnnnnnnnnnnnnnnnnnnnnng#...#.#hnnnnnnnnh..........#.ennnnnnnnnnnnnnnn",
"nnnnnnnnnnnnnnnla.#......#..dlnnnnnnnnnnnnnnnnnnnnnmha..#.##.bhnnnnnnnlc.........#.aknnnnnnnnnnnnnnn",
"nnnnnnnnnnnnnnnj.........#.#innnnnnnnnnnnnnnnnnnnnnia.#.......ahnnnnnnni............innnnnnnnnnnnnnn",
"nnnnnnnnnnnnnnnd...........cmnnnnnnnnnnnnnnnnnnnnnha............hnnnnnnnc.........##dnnnnnnnnnnnnnnn",
"nnnnnnnnnnnnnnmc..........#fnnnnnnnnnnnnnnnnnnnnnha....#...##...bgmnnnnnf##.........cmnnnnnnnnnnnnnn",
"nnnnnnnnnnnnnnk#..........aknnnnnnnnnnnnnnnnnnnnha..#.....#......cknnnnnka#.........aknnnnnnnnnnnnnn",
"nnnnnnnnnnnnnnh...........cnnnnnnnnnnnnnnnnnnnni#..#.....#......ahmnnnnnnc...........innnnnnnnnnnnnn",
"nnnnnnnnnnnnnng..........#ennnnnnnnnnnnnnnnnnnha.........#..#..#imnnnnnnne........#..gnnnnnnnnnnnnnn",
"nnnnnnnnnnnnnne..........#hnnnnnnnnnnnnnnnnnnha.....#.........ahnnnnnnnnnh#.......#..ennnnnnnnnnnnnn",
"nnnnnnnnnnnnnnc..........#knnnnnnnnnnnnnnnnnha.#...##........ainnnnnnnnnnk#..........cnnnnnnnnnnnnnn",
"nnnnnnnnnnnnnmb..........#lnnnnnnnnnnnnnnnnia.#.............#hnnnnnnnnnnnma..........bnnnnnnnnnnnnnn",
"nnnnnnnnnnnnnma..........amnnnnnnnnnnnnnnnh#.............#.ainnnnnnnnnnnnna..........bnnnnnnnnnnnnnn",
"nnnnnnnnnnnnnma..........amnnnnnnnnnnnnnnha.............#.#hnnnnnnnnnnnnnna..........bmnnnnnnnnnnnnn",
"nnnnnnnnnnnnnmb..........bmnnnnnnnnnnnnmha..............#.#hnnnnnnnnnnnnnna..........amnnnnnnnnnnnnn",
"nnnnnnnnnnnnnmb..........amnnnnnnnnnnnmia.##..#..........#.ahnnnnnnnnnnnnna..........bmnnnnnnnnnnnnn",
"nnnnnnnnnnnnnnc..........alnnnnnnnnnnnha.##..##.............#hnnnnnnnnnnnla..........cmnnnnnnnnnnnnn",
"nnnnnnnnnnnnnnd..........#jnnnnnnnnnnga..#...................ahnnnnnnnnnnj#..........dnnnnnnnnnnnnnn",
"nnnnnnnnnnnnnne...........innnnnnnnnha.#....................#.ahmnnnnnnnnh.#.........ennnnnnnnnnnnnn",
"nnnnnnnnnnnnnne.........#.hnnnnnnnnia.#...#...#.........#.....#.imnnnnnnng.#......#.#fnnnnnnnnnnnnnn",
"nnnnnnnnnnnnnni....#..#.#.cmnnnnnnh#..#..#...#...#..............#hnnnnnnnb...........innnnnnnnnnnnnn",
"nnnnnnnnnnnnnnj#......#...aknnnnnkc.....#..##...#..#.............ahnnnnnka........#.#knnnnnnnnnnnnnn",
"nnnnnnnnnnnnnnlb.#.........hnnnnnnga..#...##...#.##...............ahnnnnf.........#.bmnnnnnnnnnnnnnn",
"nnnnnnnnnnnnnnne.#.......#.clnnnnnnh#.#..##..#..#hha.............#.ahmnmb.........#.ennnnnnnnnnnnnnn",
"nnnnnnnnnnnnnnni...........#hnnnnnnnh#...#..#..#hnnh#.#.............#ini#..#.....#..innnnnnnnnnnnnnn",
"nnnnnnnnnnnnnnnla......#....dlnnnnnnnhb....#..bhmnnnha.............#.bfc...#.....#.alnnnnnnnnnnnnnnn",
"nnnnnnnnnnnnnnnne#.#..#.....afnnnnnnnni#.....binnnnnnha#.........#................#ennnnnnnnnnnnnnnn",
"nnnnnnnnnnnnnnnnha.#....#..#.amnnnnnnnnh#...#hnnnnnnnnh..............#..........#.#hnnnnnnnnnnnnnnnn",
"nnnnnnnnnnnnnnnnnb.#.....#....dmnnnnnnnnha.ainnnnnnnnnmi..........................dlnnnnnnnnnnnnnnnn",
"nnnnnnnnnnnnnnnnnh#......#..#.afnnnnnnnnngdgmnnnnnnnnnnmha.#..#.................#.gnnnnnnnnnnnnnnnnn",
"nnnnnnnnnnnnnnnnnmc.#....#..#..#glnnnnnnnmkmnnnnnnnnnnnnnh#......................clnnnnnnnnnnnnnnnnn",
"nnnnnnnnnnnnnnnnnnh#.............gmnnnnnnnnnnnnnnnnnnnnnnnha.#...................innnnnnnnnnnnnnnnnn",
"nnnnnnnnnnnnnnnnnnme..........##.#elnnnnnnnnnnnnnnnnnnnnnnnh#...................elnnnnnnnnnnnnnnnnnn",
"nnnnnnnnnnnnnnnnnnnia...........#.#dknnnnnnnnnnnnnnnnnnnnnnmhb.............##.#alnnnnnnnnnnnnnnnnnnn",
"nnnnnnnnnnnnnnnnnnnmga..............bhlmnnnnnnnnnnnnnnnnnnnnng.#...........##.#bmnnnnnnnnnnnnnnnnnnn",
"nnnnnnnnnnnnnnnnnnnnmc.......###...#..cimnnnnnnnnnnnnnnnnnnmic..........#......ajnnnnnnnnnnnnnnnnnnn",
"nnnnnnnnnnnnnnnnnnnnnkd........#........cfknnnnnnnnnnnnnnkfb#..........#........#hnnnnnnnnnnnnnnnnnn",
"nnnnnnnnnnnnnnnnnnnnnnic....##...........#bcehklmmnmljhfba.......................agnnnnnnnnnnnnnnnnn",
"nnnnnnnnnnnnnnnnnnnnnnnja#...............###.##aaabba#............................ahnnnnnnnnnnnnnnnn",
"nnnnnnnnnnnnnnnnnnnnnnnnhc..#..........................#.............##..........#.ahnnnnnnnnnnnnnnn",
"nnnnnnnnnnnnnnnnnnnnnnnnnib..##......................................##..........##.ahmnnnnnnnnnnnnn",
"nnnnnnnnnnnnnnnnnnnnnnnnnnjc......................................................#.#emnnnnnnnnnnnnn",
"nnnnnnnnnnnnnnnnnnnnnnnnnnnjd#................####.....#.............##............#cjnnnnnnnnnnnnnn",
"nnnnnnnnnnnnnnnnnnnnnnnnnnnnmfa......................................aba.........a#bknnnnnnnnnnnnnnn",
"nnnnnnnnnnnnnnnnnnnnnnnnnnnnnnjd.................................#..elmj#.......#.clnnnnnnnnnnnnnnnn",
"nnnnnnnnnnnnnnnnnnnnnnnnnnnnnnnmgda..##................#..........cilnnnha.##..#.elnnnnnnnnnnnnnnnnn",
"nnnnnnnnnnnnnnnnnnnnnnnnnnnnnnnnnlgc#...#...##...........###..##dglnnnnnng#.##.#clnnnnnnnnnnnnnnnnnn",
"nnnnnnnnnnnnnnnnnnnnnnnnnnnnnnnnnnnliea##....................behlnnnnnnnnnh#..#blnnnnnnnnnnnnnnnnnnn",
"nnnnnnnnnnnnnnnnnnnnnnnnnnnnnnnnnnnnnnkidca..............#cfilnnnnnnnnnnnnnib#cknnnnnnnnnnnnnnnnnnnn",
"nnnnnnnnnnnnnnnnnnnnnnnnnnnnnnnnnnnnnnnnnmkigecbbbabcdefikmnnnnnnnnnnnnnnnnnhejnnnnnnnnnnnnnnnnnnnnn",
"nnnnnnnnnnnnnnnnnnnnnnnnnnnnnnnnnnnnnnnnnnnnnnnnnmmmmnnnnnnnnnnnnnnnnnnnnnnnmmnnnnnnnnnnnnnnnnnnnnnn",
"nnnnnnnnnnnnnnnnnnnnnnnnnnnnnnnnnnnnnnnnnnnnnnnnnnnnnnnnnnnnnnnnnnnnnnnnnnnnnnnnnnnnnnnnnnnnnnnnnnnn",
"nnnnnnnnnnnnnnnnnnnnnnnnnnnnnnnnnnnnnnnnnnnnnnnnnnnnnnnnnnnnnnnnnnnnnnnnnnnnnnnnnnnnnnnnnnnnnnnnnnnn",
"nnnnnnnnnnnnnnnnnnnnnnnnnnnnnnnnnnnnnnnnnnnnnnnnnnnnnnnnnnnnnnnnnnnnnnnnnnnnnnnnnnnnnnnnnnnnnnnnnnnn",
"nnnnnnnnnnnnnnnnnnnnnnnnnnnnnnnnnnnnnnnnnnnnnnnnnnnnnnnnnnnnnnnnnnnnnnnnnnnnnnnnnnnnnnnnnnnnnnnnnnnn",
"nnnnnnnnnnnnnnnnnnnnnnnnnnnnnnnnnnnnnnnnnnnnnnnnnnnnnnnnnnnnnnnnnnnnnnnnnnnnnnnnnnnnnnnnnnnnnnnnnnnn",
"nnnnnnnnnnnnnnnnnnnnnnnnnnnnnnnnnnnnnnnnnnnnnnnnnnnnnnnnnnnnnnnnnnnnnnnnnnnnnnnnnnnnnnnnnnnnnnnnnnnn",
"nnnnnnnnnnnnnnnnnnnnnnnnnnnnnnnnnnnnnnnnnnnnnnnnnnnnnnnnnnnnnnnnnnnnnnnnnnnnnnnnnnnnnnnnnnnnnnnnnnnn",
"nnnnnnnnnnnnnnnnnnnnnnnnnnnnnnnnnnnnnnnnnnnnnnnnnnnnnnnnnnnnnnnnnnnnnnnnnnnnnnnnnnnnnnnnnnnnnnnnnnnn",
"nnnnnnnnnnnnnnnnnnnnnnnnnnnnnnnnnnnnnnnnnnnnnnnnnnnnnnnnnnnnnnnnnnnnnnnnnnnnnnnnnnnnnnnnnnnnnnnnnnnn",
"nnnnnnnnnnnnnnnnnnnnnnnnnnnnnnnnnnnnnnnnnnnnnnnnnnnnnnnnnnnnnnnnnnnnnnnnnnnnnnnnnnnnnnnnnnnnnnnnnnnn",
"nnnnnnnnnnnnnnnnnnnnnnnnnnnnnnnnnnnnnnnnnnnnnnnnnnnnnnnnnnnnnnnnnnnnnnnnnnnnnnnnnnnnnnnnnnnnnnnnnnnn",
"nnnnnnnnnnnnnnnnnnnnnnnnnnnnnnnnnnnnnnnnnnnnnnnnnnnnnnnnnnnnnnnnnnnnnnnnnnnnnnnnnnnnnnnnnnnnnnnnnnnn",
"nnnnnnnnnnnnnnnnnnnnnnnnnnnnnnnnnnnnnnnnnnnnnnnnnnnnnnnnnnnnnnnnnnnnnnnnnnnnnnnnnnnnnnnnnnnnnnnnnnnn"
};
